<svg xmlns="http://www.w3.org/2000/svg" version="1.1" xmlns:xlink="http://www.w3.org/1999/xlink" xmlns:svgjs="http://svgjs.dev/svgjs" width="1500" height="476" viewBox="0 0 1500 476"><g transform="matrix(1,0,0,1,0.15999999999996817,-0.179356000000098)"><svg viewBox="0 0 375 119" data-background-color="#ffffff" preserveAspectRatio="xMidYMid meet" height="476" width="1500" xmlns="http://www.w3.org/2000/svg" xmlns:xlink="http://www.w3.org/1999/xlink"><g id="tight-bounds" transform="matrix(1,0,0,1,-0.03976000000000113,0.0448390000000245)"><svg viewBox="0 0 375.07953 118.91032199999998" height="118.91032199999998" width="375.07953"><g><svg></svg></g><g><svg viewBox="0 0 375.07953 118.91032199999998" height="118.91032199999998" width="375.07953"><g transform="matrix(1,0,0,1,-10.22024,-67.68987000000001)"><path d="M10.22 179.51v-111.82h375.08v111.82h-160.79l0-2.741h158.049v-106.338h-369.598v106.338h26.832l0 2.741z" fill="#0074d9" fill-rule="nonzero" stroke="none" stroke-width="1" stroke-linecap="butt" stroke-linejoin="miter" stroke-miterlimit="10" stroke-dasharray="" stroke-dashoffset="0" font-family="none" font-weight="none" font-size="none" text-anchor="none" style="mix-blend-mode: normal" data-fill-palette-color="tertiary"></path><g><path transform="translate(47.63722,183.18023) scale(0.39767,0.39767)" d="M17.45 0h-4.85v-31.75h-11.65v-4.1h28.05v4.1h-11.55zM14.1 0h-5.1v-2.05c0-0.3 0.067-0.543 0.2-0.73 0.133-0.18 0.333-0.287 0.6-0.32v0l3.75-0.8zM21.05 0h-5.1l0.55-3.9 3.75 0.8c0.267 0.033 0.467 0.14 0.6 0.32 0.133 0.187 0.2 0.43 0.2 0.73v0zM25.65-28l-0.75-5 4.1 1.25v4.55h-2.3c-0.267 0-0.49-0.06-0.67-0.18-0.187-0.113-0.313-0.32-0.38-0.62zM0.95-31.75l4.1-1.25-0.75 5c-0.033 0.3-0.15 0.507-0.35 0.62-0.2 0.12-0.433 0.18-0.7 0.18v0h-2.3zM37.35 0.4v0c-1.333 0-2.533-0.26-3.6-0.78-1.067-0.513-1.917-1.27-2.55-2.27-0.633-1-0.95-2.233-0.95-3.7v0c0-1 0.277-1.957 0.83-2.87 0.547-0.92 1.437-1.747 2.67-2.48v0c1.233-0.7 2.843-1.283 4.83-1.75 1.98-0.467 4.403-0.733 7.27-0.8v0-1.95c0-1.967-0.423-3.46-1.27-4.48-0.853-1.013-2.097-1.52-3.73-1.52v0c-0.867 0-1.773 0.223-2.72 0.67-0.953 0.453-1.83 0.903-2.63 1.35-0.8 0.453-1.433 0.68-1.9 0.68v0c-0.3 0-0.557-0.083-0.77-0.25-0.22-0.167-0.397-0.367-0.53-0.6v0l-0.8-1.4c1.4-1.367 2.91-2.383 4.53-3.05 1.613-0.667 3.403-1 5.37-1v0c1.9 0 3.5 0.4 4.8 1.2 1.3 0.8 2.293 1.917 2.98 3.35 0.68 1.433 1.02 3.117 1.02 5.05v0 16.2h-1.95c-0.433 0-0.783-0.067-1.05-0.2-0.267-0.133-0.45-0.417-0.55-0.85v0l-0.5-2.35c-1.333 1.2-2.667 2.133-4 2.8-1.333 0.667-2.933 1-4.8 1zM38.65-2.75v0c1.5 0 2.817-0.3 3.95-0.9 1.133-0.6 2.217-1.433 3.25-2.5v0-5.25c-1.733 0.033-3.3 0.157-4.7 0.37-1.4 0.22-2.59 0.52-3.57 0.9-0.987 0.387-1.737 0.87-2.25 1.45-0.52 0.587-0.78 1.297-0.78 2.13v0c0 1.333 0.393 2.3 1.18 2.9 0.78 0.6 1.753 0.9 2.92 0.9zM53.8 0h-5.1l0.55-3.9 3.75 0.8c0.267 0.033 0.467 0.14 0.6 0.32 0.133 0.187 0.2 0.43 0.2 0.73v0zM63.9 0h-4.45v-36.85h4.45v21.7h1.15c0.333 0 0.617-0.05 0.85-0.15 0.233-0.1 0.467-0.283 0.7-0.55v0l8-8.6c0.267-0.267 0.517-0.483 0.75-0.65 0.233-0.167 0.567-0.25 1-0.25v0h4.05l-9.35 9.95c-0.233 0.233-0.457 0.467-0.67 0.7-0.22 0.233-0.48 0.433-0.78 0.6v0c0.567 0.4 1.067 0.933 1.5 1.6v0l9.9 12.5h-4c-0.367 0-0.667-0.077-0.9-0.23-0.233-0.147-0.483-0.37-0.75-0.67v0l-8.35-10.35c-0.233-0.367-0.473-0.6-0.72-0.7-0.253-0.1-0.63-0.15-1.13-0.15v0h-1.25zM75.95-21.45l-0.7 0.15-1.05-1.65v-2.4h5.8zM77.55-3.9l-0.55 3.9-2.4-4.55zM60.95 0h-5.1v-2.05c0-0.3 0.067-0.543 0.2-0.73 0.133-0.18 0.333-0.287 0.6-0.32v0l3.75-0.8zM67.5 0h-5.1l0.55-3.9 3.75 0.8c0.267 0.033 0.467 0.14 0.6 0.32 0.133 0.187 0.2 0.43 0.2 0.73v0zM55.85-36.85h5.1l-0.55 3.9-3.75-0.8c-0.267-0.067-0.467-0.183-0.6-0.35-0.133-0.167-0.2-0.4-0.2-0.7v0zM75.4-25.35h5.1v2.05c0 0.3-0.067 0.533-0.2 0.7-0.133 0.167-0.333 0.283-0.6 0.35v0l-3.75 0.8zM70.25-25.35h5.1l-0.55 3.9-3.75-0.8c-0.267-0.067-0.467-0.183-0.6-0.35-0.133-0.167-0.2-0.4-0.2-0.7v0zM82.1 0h-5.1l0.55-3.9 3.75 0.8c0.267 0.033 0.467 0.14 0.6 0.32 0.133 0.187 0.2 0.43 0.2 0.73v0zM95.9 0.35v0c-2.433 0-4.557-0.55-6.37-1.65-1.82-1.1-3.23-2.667-4.23-4.7-1-2.033-1.5-4.433-1.5-7.2v0c0-2.367 0.483-4.5 1.45-6.4 0.967-1.9 2.343-3.4 4.13-4.5 1.78-1.1 3.87-1.65 6.27-1.65v0c2.1 0 3.933 0.467 5.5 1.4 1.567 0.933 2.793 2.24 3.68 3.92 0.88 1.687 1.32 3.697 1.32 6.03v0c0 0.7-0.073 1.167-0.22 1.4-0.153 0.233-0.447 0.35-0.88 0.35v0h-16.85c0 0.1 0 0.207 0 0.32 0 0.12 0 0.23 0 0.33v0c0.167 2.8 0.95 4.973 2.35 6.52 1.4 1.553 3.3 2.33 5.7 2.33v0c1.033 0 2.06-0.21 3.08-0.63 1.013-0.413 1.913-0.82 2.7-1.22 0.78-0.4 1.337-0.6 1.67-0.6v0c0.367 0 0.65 0.133 0.85 0.4v0l1.25 1.65c-0.667 0.867-1.557 1.59-2.67 2.17-1.12 0.587-2.313 1.02-3.58 1.3-1.267 0.287-2.483 0.43-3.65 0.43zM88.35-15.45v0h13.8c0-2.067-0.567-3.75-1.7-5.05-1.133-1.3-2.7-1.95-4.7-1.95v0c-2.167 0-3.867 0.617-5.1 1.85-1.233 1.233-2 2.95-2.3 5.15zM129.75 0.4v0c-1.333 0-2.533-0.26-3.6-0.78-1.067-0.513-1.917-1.27-2.55-2.27-0.633-1-0.95-2.233-0.95-3.7v0c0-1 0.277-1.957 0.83-2.87 0.547-0.92 1.437-1.747 2.67-2.48v0c1.233-0.7 2.843-1.283 4.83-1.75 1.98-0.467 4.403-0.733 7.27-0.8v0-1.95c0-1.967-0.423-3.46-1.27-4.48-0.853-1.013-2.097-1.52-3.73-1.52v0c-0.867 0-1.773 0.223-2.72 0.67-0.953 0.453-1.83 0.903-2.63 1.35-0.8 0.453-1.433 0.68-1.9 0.68v0c-0.3 0-0.557-0.083-0.77-0.25-0.22-0.167-0.397-0.367-0.53-0.6v0l-0.8-1.4c1.4-1.367 2.91-2.383 4.53-3.05 1.613-0.667 3.403-1 5.37-1v0c1.9 0 3.5 0.4 4.8 1.2 1.3 0.8 2.293 1.917 2.98 3.35 0.68 1.433 1.02 3.117 1.02 5.05v0 16.2h-1.95c-0.433 0-0.783-0.067-1.05-0.2-0.267-0.133-0.45-0.417-0.55-0.85v0l-0.5-2.35c-1.333 1.2-2.667 2.133-4 2.8-1.333 0.667-2.933 1-4.8 1zM131.05-2.75v0c1.5 0 2.817-0.3 3.95-0.9 1.133-0.6 2.217-1.433 3.25-2.5v0-5.25c-1.733 0.033-3.3 0.157-4.7 0.37-1.4 0.22-2.59 0.52-3.57 0.9-0.987 0.387-1.737 0.87-2.25 1.45-0.52 0.587-0.78 1.297-0.78 2.13v0c0 1.333 0.393 2.3 1.18 2.9 0.78 0.6 1.753 0.9 2.92 0.9zM146.2 0h-5.1l0.55-3.9 3.75 0.8c0.267 0.033 0.467 0.14 0.6 0.32 0.133 0.187 0.2 0.43 0.2 0.73v0zM172.6 0.4v0c-1.267 0-2.557-0.107-3.87-0.32-1.32-0.22-2.537-0.48-3.65-0.78-1.12-0.3-2.013-0.567-2.68-0.8v0-4.45l3.85 0.95c1.367 0.5 2.527 0.85 3.48 1.05 0.947 0.2 2.037 0.3 3.27 0.3v0c1.5 0 2.793-0.267 3.88-0.8 1.08-0.533 1.92-1.283 2.52-2.25 0.6-0.967 0.9-2.067 0.9-3.3v0c0-1.167-0.25-2.117-0.75-2.85-0.5-0.733-1.167-1.327-2-1.78-0.833-0.447-1.757-0.83-2.77-1.15-1.02-0.313-2.063-0.653-3.13-1.02v0c-1.367-0.467-2.707-1.05-4.02-1.75-1.32-0.7-2.397-1.643-3.23-2.83-0.833-1.18-1.25-2.753-1.25-4.72v0c0-1.967 0.46-3.717 1.38-5.25 0.913-1.533 2.203-2.733 3.87-3.6 1.667-0.867 3.633-1.3 5.9-1.3v0c1.433 0 3.027 0.173 4.78 0.52 1.747 0.353 3.403 0.863 4.97 1.53v0 3.7l-3.8-0.75c-1.067-0.3-2.123-0.533-3.17-0.7-1.053-0.167-1.98-0.25-2.78-0.25v0c-2.033 0-3.65 0.507-4.85 1.52-1.2 1.02-1.8 2.33-1.8 3.93v0c0 1.4 0.427 2.483 1.28 3.25 0.847 0.767 1.93 1.383 3.25 1.85 1.313 0.467 2.67 0.95 4.07 1.45v0c1.567 0.533 3 1.167 4.3 1.9 1.3 0.733 2.343 1.69 3.13 2.87 0.78 1.187 1.17 2.763 1.17 4.73v0c0 2.1-0.49 3.99-1.47 5.67-0.987 1.687-2.387 3.013-4.2 3.98-1.82 0.967-4.013 1.45-6.58 1.45zM180.7-26.75l-0.75-5 4.1 1.25v4.55h-2.3c-0.267 0-0.49-0.06-0.67-0.18-0.187-0.113-0.313-0.32-0.38-0.62zM165.75-9.7l0.75 5-4.1-1.25v-4.55h2.3c0.267 0 0.5 0.057 0.7 0.17 0.2 0.12 0.317 0.33 0.35 0.63zM200.9 0.35v0c-2.433 0-4.557-0.55-6.37-1.65-1.82-1.1-3.23-2.667-4.23-4.7-1-2.033-1.5-4.433-1.5-7.2v0c0-2.367 0.483-4.5 1.45-6.4 0.967-1.9 2.343-3.4 4.13-4.5 1.78-1.1 3.87-1.65 6.27-1.65v0c2.1 0 3.933 0.467 5.5 1.4 1.567 0.933 2.793 2.24 3.68 3.92 0.88 1.687 1.32 3.697 1.32 6.03v0c0 0.7-0.073 1.167-0.22 1.4-0.153 0.233-0.447 0.35-0.88 0.35v0h-16.85c0 0.1 0 0.207 0 0.32 0 0.12 0 0.23 0 0.33v0c0.167 2.8 0.95 4.973 2.35 6.52 1.4 1.553 3.3 2.33 5.7 2.33v0c1.033 0 2.06-0.21 3.08-0.63 1.013-0.413 1.913-0.82 2.7-1.22 0.78-0.4 1.337-0.6 1.67-0.6v0c0.367 0 0.65 0.133 0.85 0.4v0l1.25 1.65c-0.667 0.867-1.557 1.59-2.67 2.17-1.12 0.587-2.313 1.02-3.58 1.3-1.267 0.287-2.483 0.43-3.65 0.43zM193.35-15.45v0h13.8c0-2.067-0.567-3.75-1.7-5.05-1.133-1.3-2.7-1.95-4.7-1.95v0c-2.167 0-3.867 0.617-5.1 1.85-1.233 1.233-2 2.95-2.3 5.15zM225.75 0.35v0c-2.2 0-4.14-0.543-5.82-1.63-1.687-1.08-3.003-2.603-3.95-4.57-0.953-1.967-1.43-4.25-1.43-6.85v0c0-2.533 0.45-4.783 1.35-6.75 0.9-1.967 2.233-3.51 4-4.63 1.767-1.113 3.967-1.67 6.6-1.67v0c1.033 0 2.233 0.173 3.6 0.52 1.367 0.353 2.667 0.78 3.9 1.28v0 2.7l-2.6-0.15c-0.667-0.233-1.373-0.433-2.12-0.6-0.753-0.167-1.597-0.25-2.53-0.25v0c-1.7 0-3.107 0.39-4.22 1.17-1.12 0.787-1.963 1.897-2.53 3.33-0.567 1.433-0.85 3.117-0.85 5.05v0c0 2.9 0.633 5.223 1.9 6.97 1.267 1.753 3.083 2.63 5.45 2.63v0c1.3 0 2.367-0.21 3.2-0.63 0.833-0.413 1.517-0.83 2.05-1.25 0.533-0.413 0.95-0.62 1.25-0.62v0c0.167 0 0.327 0.033 0.48 0.1 0.147 0.067 0.27 0.167 0.37 0.3v0l1.25 1.65c-1.1 1.333-2.467 2.317-4.1 2.95-1.633 0.633-3.383 0.95-5.25 0.95zM231.3-18.15l-0.5-3.75 3.2 0.65v3.9h-1.65c-0.333 0-0.583-0.073-0.75-0.22-0.167-0.153-0.267-0.347-0.3-0.58zM248.9 0.4v0c-1.833 0-3.383-0.41-4.65-1.23-1.267-0.813-2.223-1.937-2.87-3.37-0.653-1.433-0.98-3.1-0.98-5v0-16.15h4.45v16.15c0 1.933 0.443 3.423 1.33 4.47 0.88 1.053 2.22 1.58 4.02 1.58v0c1.3 0 2.527-0.31 3.68-0.93 1.147-0.613 2.203-1.47 3.17-2.57v0-18.7h4.45v25.35h-2.65c-0.667 0-1.067-0.317-1.2-0.95v0l-0.35-2.7c-1.1 1.2-2.333 2.173-3.7 2.92-1.367 0.753-2.933 1.13-4.7 1.13zM265.1 0h-5.1l0.55-3.9 3.75 0.8c0.267 0.033 0.467 0.14 0.6 0.32 0.133 0.187 0.2 0.43 0.2 0.73v0zM236.8-25.35h5.1l-0.55 3.9-3.75-0.8c-0.267-0.067-0.467-0.183-0.6-0.35-0.133-0.167-0.2-0.4-0.2-0.7v0zM253.45-25.35h5.1l-0.55 3.9-3.75-0.8c-0.267-0.067-0.467-0.183-0.6-0.35-0.133-0.167-0.2-0.4-0.2-0.7v0zM275.2 0h-4.45v-25.35h2.55c0.5 0 0.85 0.09 1.05 0.27 0.2 0.187 0.317 0.513 0.35 0.98v0l0.3 3.95c0.867-1.767 1.933-3.15 3.2-4.15 1.267-1 2.767-1.5 4.5-1.5v0c0.7 0 1.333 0.083 1.9 0.25 0.567 0.167 1.083 0.383 1.55 0.65v0l-0.55 3.35c-0.033 0.2-0.127 0.35-0.28 0.45-0.147 0.1-0.32 0.15-0.52 0.15v0c-0.233 0-0.683-0.077-1.35-0.23-0.667-0.147-1.25-0.22-1.75-0.22v0c-1.533 0-2.827 0.45-3.88 1.35-1.047 0.9-1.92 2.2-2.62 3.9v0zM278.8 0h-5.1l0.55-3.9 3.75 0.8c0.267 0.033 0.467 0.14 0.6 0.32 0.133 0.187 0.2 0.43 0.2 0.73v0zM272.25 0h-5.1v-2.05c0-0.3 0.067-0.543 0.2-0.73 0.133-0.18 0.333-0.287 0.6-0.32v0l3.75-0.8zM267.15-25.35h5.1l-0.55 3.9-3.75-0.8c-0.267-0.067-0.467-0.183-0.6-0.35-0.133-0.167-0.2-0.4-0.2-0.7v0zM300.65 0.35v0c-2.433 0-4.557-0.55-6.37-1.65-1.82-1.1-3.23-2.667-4.23-4.7-1-2.033-1.5-4.433-1.5-7.2v0c0-2.367 0.483-4.5 1.45-6.4 0.967-1.9 2.343-3.4 4.13-4.5 1.78-1.1 3.87-1.65 6.27-1.65v0c2.1 0 3.933 0.467 5.5 1.4 1.567 0.933 2.793 2.24 3.68 3.92 0.88 1.687 1.32 3.697 1.32 6.03v0c0 0.7-0.073 1.167-0.22 1.4-0.153 0.233-0.447 0.35-0.88 0.35v0h-16.85c0 0.1 0 0.207 0 0.32 0 0.12 0 0.23 0 0.33v0c0.167 2.8 0.95 4.973 2.35 6.52 1.4 1.553 3.3 2.33 5.7 2.33v0c1.033 0 2.06-0.21 3.08-0.63 1.013-0.413 1.913-0.82 2.7-1.22 0.78-0.4 1.337-0.6 1.67-0.6v0c0.367 0 0.65 0.133 0.85 0.4v0l1.25 1.65c-0.667 0.867-1.557 1.59-2.67 2.17-1.12 0.587-2.313 1.02-3.58 1.3-1.267 0.287-2.483 0.43-3.65 0.43zM293.1-15.45v0h13.8c0-2.067-0.567-3.75-1.7-5.05-1.133-1.3-2.7-1.95-4.7-1.95v0c-2.167 0-3.867 0.617-5.1 1.85-1.233 1.233-2 2.95-2.3 5.15zM338.35 0.4v0c-1.267 0-2.557-0.107-3.87-0.32-1.32-0.22-2.537-0.48-3.65-0.78-1.12-0.3-2.013-0.567-2.68-0.8v0-4.45l3.85 0.95c1.367 0.5 2.527 0.85 3.48 1.05 0.947 0.2 2.037 0.3 3.27 0.3v0c1.5 0 2.793-0.267 3.88-0.8 1.08-0.533 1.92-1.283 2.52-2.25 0.6-0.967 0.9-2.067 0.9-3.3v0c0-1.167-0.25-2.117-0.75-2.85-0.5-0.733-1.167-1.327-2-1.78-0.833-0.447-1.757-0.83-2.77-1.15-1.02-0.313-2.063-0.653-3.13-1.02v0c-1.367-0.467-2.707-1.05-4.02-1.75-1.32-0.7-2.397-1.643-3.23-2.83-0.833-1.18-1.25-2.753-1.25-4.72v0c0-1.967 0.46-3.717 1.38-5.25 0.913-1.533 2.203-2.733 3.87-3.6 1.667-0.867 3.633-1.3 5.9-1.3v0c1.433 0 3.027 0.173 4.78 0.52 1.747 0.353 3.403 0.863 4.97 1.53v0 3.7l-3.8-0.75c-1.067-0.3-2.123-0.533-3.17-0.7-1.053-0.167-1.98-0.25-2.78-0.25v0c-2.033 0-3.65 0.507-4.85 1.52-1.2 1.02-1.8 2.33-1.8 3.93v0c0 1.4 0.427 2.483 1.28 3.25 0.847 0.767 1.93 1.383 3.25 1.85 1.313 0.467 2.67 0.95 4.07 1.45v0c1.567 0.533 3 1.167 4.3 1.9 1.3 0.733 2.343 1.69 3.13 2.87 0.78 1.187 1.17 2.763 1.17 4.73v0c0 2.1-0.49 3.99-1.47 5.67-0.987 1.687-2.387 3.013-4.2 3.98-1.82 0.967-4.013 1.45-6.58 1.45zM346.45-26.75l-0.75-5 4.1 1.25v4.55h-2.3c-0.267 0-0.49-0.06-0.67-0.18-0.187-0.113-0.313-0.32-0.38-0.62zM331.5-9.7l0.75 5-4.1-1.25v-4.55h2.3c0.267 0 0.5 0.057 0.7 0.17 0.2 0.12 0.317 0.33 0.35 0.63zM363.75 0.4v0c-2 0-3.54-0.56-4.62-1.68-1.087-1.113-1.63-2.72-1.63-4.82v0-15.5h-3.05c-0.267 0-0.49-0.083-0.67-0.25-0.187-0.167-0.28-0.417-0.28-0.75v0-1.75l4.15-0.55 1.05-7.8c0.067-0.567 0.4-0.85 1-0.85v0h2.25v8.7h7.25v3.25h-7.25v15.2c0 1.067 0.26 1.857 0.78 2.37 0.513 0.52 1.187 0.78 2.02 0.78v0c0.367 0 0.767-0.1 1.2-0.3 0.433-0.2 0.833-0.4 1.2-0.6 0.367-0.2 0.633-0.3 0.8-0.3v0c0.233 0 0.433 0.133 0.6 0.4v0l1.3 2.15c-0.767 0.7-1.69 1.257-2.77 1.67-1.087 0.42-2.197 0.63-3.33 0.63zM384.8 0.35v0c-2.433 0-4.557-0.55-6.37-1.65-1.82-1.1-3.23-2.667-4.23-4.7-1-2.033-1.5-4.433-1.5-7.2v0c0-2.367 0.483-4.5 1.45-6.4 0.967-1.9 2.34-3.4 4.12-4.5 1.787-1.1 3.88-1.65 6.28-1.65v0c2.1 0 3.933 0.467 5.5 1.4 1.567 0.933 2.793 2.24 3.68 3.92 0.88 1.687 1.32 3.697 1.32 6.03v0c0 0.7-0.077 1.167-0.23 1.4-0.147 0.233-0.437 0.35-0.87 0.35v0h-16.85c0 0.1 0 0.207 0 0.32 0 0.12 0 0.23 0 0.33v0c0.167 2.8 0.95 4.973 2.35 6.52 1.4 1.553 3.3 2.33 5.7 2.33v0c1.033 0 2.06-0.21 3.08-0.63 1.013-0.413 1.913-0.82 2.7-1.22 0.78-0.4 1.337-0.6 1.67-0.6v0c0.367 0 0.65 0.133 0.85 0.4v0l1.25 1.65c-0.667 0.867-1.56 1.59-2.68 2.17-1.113 0.587-2.303 1.02-3.57 1.3-1.267 0.287-2.483 0.43-3.65 0.43zM377.25-15.45v0h13.8c0-2.067-0.567-3.75-1.7-5.05-1.133-1.3-2.7-1.95-4.7-1.95v0c-2.167 0-3.867 0.617-5.1 1.85-1.233 1.233-2 2.95-2.3 5.15zM406.2 8.6h-4.45v-33.95h2.65c0.667 0 1.067 0.317 1.2 0.95v0l0.4 3c1.067-1.333 2.3-2.4 3.7-3.2 1.4-0.8 3-1.2 4.8-1.2v0c2.067 0 3.817 0.533 5.25 1.6 1.433 1.067 2.517 2.567 3.25 4.5 0.733 1.933 1.1 4.217 1.1 6.85v0c0 2.433-0.433 4.65-1.3 6.65-0.867 2-2.117 3.59-3.75 4.77-1.633 1.187-3.6 1.78-5.9 1.78v0c-1.567 0-2.9-0.26-4-0.78-1.1-0.513-2.083-1.253-2.95-2.22v0zM412.15-3.1v0c1.6 0 2.943-0.377 4.03-1.13 1.08-0.747 1.903-1.853 2.47-3.32 0.567-1.467 0.85-3.233 0.85-5.3v0c0-3.067-0.533-5.393-1.6-6.98-1.067-1.58-2.683-2.37-4.85-2.37v0c-1.467 0-2.74 0.333-3.82 1-1.087 0.667-2.097 1.617-3.03 2.85v0 12.25c0.833 1.1 1.733 1.873 2.7 2.32 0.967 0.453 2.05 0.68 3.25 0.68zM398.15-25.35h5.1l-0.55 3.9-3.75-0.8c-0.267-0.067-0.467-0.183-0.6-0.35-0.133-0.167-0.2-0.4-0.2-0.7v0zM403.25 8.6h-5.1v-2.05c0-0.3 0.067-0.54 0.2-0.72 0.133-0.187 0.333-0.297 0.6-0.33v0l3.75-0.8zM409.8 8.6h-5.1l0.55-3.9 3.75 0.8c0.267 0.033 0.467 0.143 0.6 0.33 0.133 0.18 0.2 0.42 0.2 0.72v0z" fill="#0074d9" fill-rule="nonzero" stroke="none" stroke-width="1" stroke-linecap="butt" stroke-linejoin="miter" stroke-miterlimit="10" stroke-dasharray="" stroke-dashoffset="0" font-family="none" font-weight="none" font-size="none" text-anchor="none" style="mix-blend-mode: normal" data-fill-palette-color="secondary" id="text-1"></path></g></g><g transform="matrix(1,0,0,1,29.33176499999999,38.45510510031275)"><svg viewBox="0 0 316.416 42.00011179937447" height="42.00011179937447" width="316.416"><g><svg viewBox="0 0 316.416 42.00011179937447" height="42.00011179937447" width="316.416"><g><svg viewBox="0 0 371.40468130976006 49.29914460021292" height="42.00011179937447" width="316.416"><g transform="matrix(1,0,0,1,54.98868130976008,6.8134128933724085)"><svg viewBox="0 0 316.416 35.6723188134681" height="35.6723188134681" width="316.416"><g id="textblocktransform"><svg viewBox="0 0 316.416 35.6723188134681" height="35.6723188134681" width="316.416" id="textblock"><g><svg viewBox="0 0 316.416 35.6723188134681" height="35.6723188134681" width="316.416"><g transform="matrix(1,0,0,1,0,0)"><svg width="316.416" viewBox="1.25 -30 270.144171510247 30.6" height="35.6723188134681" data-palette-color="#ffdc00"><g transform="matrix(1,0,0,1,0,0)"><g><svg width="5.549841510247009" viewBox="3.16 -36.36 40.730000000000004 36.36" height="4.954697215774139" data-palette-color="#ffdc00" id="scriptelement" x="264.6949207551235" y="-28.55301860788707"><path d="M18.7 0L3.16 0 3.16-36.36 17.72-36.36Q21.73-36.36 24.41-35.17 27.1-33.98 28.44-31.88 29.79-29.78 29.79-27.04L29.79-27.04Q29.79-24.91 28.94-23.3 28.09-21.7 26.61-20.68 25.12-19.66 23.22-19.23L23.22-19.23 23.22-18.87Q25.3-18.79 27.12-17.7 28.94-16.62 30.08-14.68 31.21-12.73 31.21-10.05L31.21-10.05Q31.21-7.16 29.79-4.89 28.36-2.63 25.57-1.31 22.78 0 18.7 0L18.7 0ZM10.85-15.94L10.85-6.29 17.12-6.29Q20.33-6.29 21.8-7.52 23.28-8.75 23.28-10.81L23.28-10.81Q23.28-12.32 22.55-13.48 21.82-14.63 20.48-15.29 19.14-15.94 17.29-15.94L17.29-15.94 10.85-15.94ZM10.85-30.15L10.85-21.15 16.55-21.15Q18.13-21.15 19.36-21.71 20.6-22.27 21.32-23.3 22.03-24.33 22.03-25.76L22.03-25.76Q22.03-27.73 20.64-28.94 19.25-30.15 16.69-30.15L16.69-30.15 10.85-30.15ZM36.2-36.36L43.89-36.36 43.89 0 36.2 0 36.2-36.36Z" opacity="1" transform="matrix(1,0,0,1,0,0)" fill="#ffdc00" class="undefined-123" data-fill-palette-color="primary" id="tk-123"></path></svg></g></g><path d="M263.546-26.076C263.546-28.243 265.302-30 267.47-30 269.637-30 271.394-28.243 271.394-26.076 271.394-23.908 269.637-22.151 267.47-22.151 265.302-22.151 263.546-23.908 263.546-26.076ZM267.47-22.551C269.416-22.551 270.994-24.129 270.994-26.076 270.994-28.022 269.416-29.6 267.47-29.6 265.523-29.6 263.946-28.022 263.946-26.076 263.946-24.129 265.523-22.551 267.47-22.551Z" fill="#ffdc00" id="scriptcircle" data-fill-palette-color="primary"></path><g class="wordmark-text-0" data-fill-palette-color="primary" id="text-0"><path d="M12.4 0L1.25 0 1.25-29.55 12.85-29.55Q16.15-29.55 17.63-28.15 19.1-26.75 19.1-24.5L19.1-24.5 19.1-21.3Q19.1-19.2 18.07-17.68 17.05-16.15 14.7-15.9L14.7-15.9 14.7-15.8Q16.85-15.8 18.35-14.43 19.85-13.05 19.85-10.1L19.85-10.1 19.85-6.25Q19.85-2.7 17.88-1.35 15.9 0 12.4 0L12.4 0ZM9.55-2.3L11.75-2.25Q13.35-2.25 14.5-3.85 15.65-5.45 15.65-8.9L15.65-8.9 15.65-10.2Q15.65-12.1 14.85-13.65 14.05-15.2 12.05-15.2L12.05-15.2Q13.1-15.2 14.1-16.8L14.1-16.8Q15.05-18.35 15.05-21.9L15.05-21.9Q15.05-24.2 14.78-25.38 14.5-26.55 13.65-27 12.8-27.45 11.05-27.45L11.05-27.45 9.45-27.4 9.45-27.3 11.05-27.25Q12.7-27.25 13.48-26.83 14.25-26.4 14.45-25.25 14.65-24.1 14.65-21.9L14.65-21.9Q14.65-19.05 13.98-17.13 13.3-15.2 11.55-15.2L11.55-15.2 9.55-15.2 9.55-15.1 11.55-15.1Q13.85-15.1 14.53-13.75 15.2-12.4 15.2-10.2L15.2-10.2 15.2-8.9Q15.2-5.55 14.25-4 13.3-2.45 11.75-2.45L11.75-2.45 9.55-2.4 9.55-2.3ZM5.15-15.25L5.4-2.25 5.55-2.25 5.65-15.25 5.6-27.35 5.4-27.35 5.15-15.25ZM9.55-25.35L9.55-17.4 10.15-17.4Q10.7-17.4 10.95-18.55L10.95-18.55Q11.05-19.1 11.13-19.83 11.2-20.55 11.2-21.35L11.2-21.35Q11.2-22.2 11.18-22.93 11.15-23.65 11.1-24.2L11.1-24.2Q11-25.35 10.3-25.35L10.3-25.35 9.55-25.35ZM9.55-12.45L9.55-4.05 10.3-4.05Q10.85-4.05 11.05-5.3L11.05-5.3Q11.2-6.5 11.2-8.25L11.2-8.25Q11.2-9.1 11.18-9.85 11.15-10.6 11.1-11.25L11.1-11.25Q11.05-12.45 10.3-12.45L10.3-12.45 9.55-12.45ZM30.15 0L21.85 0 21.85-29.55 33.45-29.55Q36.75-29.55 38.22-28.15 39.7-26.75 39.7-24.5L39.7-24.5 39.7-20Q39.7-17.85 38.82-16.15 37.95-14.45 35.55-13.9L35.55-13.9Q36.75-13.8 37.45-13.15 38.15-12.5 38.8-10.75L38.8-10.75 41.55 0 32.7 0 30.15-13.1 30.15 0ZM31.35-14.6L31.35-14.5 32.45-14.5Q34-14.5 34.82-15.6 35.65-16.7 35.97-18.4 36.3-20.1 36.3-21.9L36.3-21.9Q36.3-25.1 35.4-26.33 34.5-27.55 32.15-27.45L32.15-27.45 30.55-27.4 30.55-27.3 32.15-27.25Q33.75-27.2 34.52-26.7 35.3-26.2 35.52-25.05 35.75-23.9 35.75-21.9L35.75-21.9Q35.75-20.45 35.55-18.78 35.35-17.1 34.65-15.93 33.95-14.75 32.45-14.65L32.45-14.65 31.35-14.6ZM25.7-15L25.9-2.35 26.1-2.35 26.35-15 26.15-27.35 25.95-27.35 25.7-15ZM30.15-25.35L30.15-16 30.75-16Q31.45-16 31.62-17.13 31.8-18.25 31.8-20.4L31.8-20.4Q31.8-21.8 31.77-22.75 31.75-23.7 31.7-24.25L31.7-24.25Q31.65-25.35 30.9-25.35L30.9-25.35 30.15-25.35ZM36.35-2.35L36.35-2.35 36.75-2.35Q36.55-3.1 36.2-4.65 35.85-6.2 35.4-7.98 34.95-9.75 34.35-11.2 33.75-12.65 32.95-13.25L32.95-13.25 32.9-13.25Q33.65-12.65 34.15-11.33 34.65-10 35-8.38 35.35-6.75 35.67-5.15 36-3.55 36.35-2.35ZM56.75 0L42.45 0 42.45-29.55 56.75-29.55 56.75-24 50.75-24 50.75-18.25 56.25-18.25 56.25-12 50.75-12 50.75-5.4 56.75-5.4 56.75 0ZM46.25-15L46.45-2.75 54.7-2.8 54.7-2.9 46.7-2.95 46.9-14.9 53.45-14.95 53.45-15.05 46.9-15.1 46.7-26.6 54.7-26.65 54.7-26.75 46.45-26.8 46.25-15ZM67.14 0L58.84 0 58.84-29.55 70.44-29.55Q73.74-29.55 75.22-28.15 76.69-26.75 76.69-24.5L76.69-24.5 76.69-20Q76.69-17.85 75.82-16.15 74.94-14.45 72.54-13.9L72.54-13.9Q73.74-13.8 74.44-13.15 75.14-12.5 75.79-10.75L75.79-10.75 78.54 0 69.69 0 67.14-13.1 67.14 0ZM68.34-14.6L68.34-14.5 69.44-14.5Q70.99-14.5 71.82-15.6 72.64-16.7 72.97-18.4 73.29-20.1 73.29-21.9L73.29-21.9Q73.29-25.1 72.39-26.33 71.49-27.55 69.14-27.45L69.14-27.45 67.54-27.4 67.54-27.3 69.14-27.25Q70.74-27.2 71.52-26.7 72.29-26.2 72.52-25.05 72.74-23.9 72.74-21.9L72.74-21.9Q72.74-20.45 72.54-18.78 72.34-17.1 71.64-15.93 70.94-14.75 69.44-14.65L69.44-14.65 68.34-14.6ZM62.69-15L62.89-2.35 63.09-2.35 63.34-15 63.14-27.35 62.94-27.35 62.69-15ZM67.14-25.35L67.14-16 67.74-16Q68.44-16 68.62-17.13 68.79-18.25 68.79-20.4L68.79-20.4Q68.79-21.8 68.77-22.75 68.74-23.7 68.69-24.25L68.69-24.25Q68.64-25.35 67.89-25.35L67.89-25.35 67.14-25.35ZM73.34-2.35L73.34-2.35 73.74-2.35Q73.54-3.1 73.19-4.65 72.84-6.2 72.39-7.98 71.94-9.75 71.34-11.2 70.74-12.65 69.94-13.25L69.94-13.25 69.89-13.25Q70.64-12.65 71.14-11.33 71.64-10 71.99-8.38 72.34-6.75 72.67-5.15 72.99-3.55 73.34-2.35ZM87.39 0L79.44 0 79.44-29.55 87.39-29.55 87.39 0ZM82.99-15L83.19-2.35 83.39-2.35 83.64-15 83.44-27.35 83.24-27.35 82.99-15Z" fill="#ffdc00" data-fill-palette-color="primary"></path><path d="M104.09 0L96.14 0 96.14-29.55 104.09-29.55 104.09 0ZM99.69-15L99.89-2.35 100.09-2.35 100.34-15 100.14-27.35 99.94-27.35 99.69-15ZM113.54 0L106.59 0 106.59-29.55 113.48-29.55 117.09-15.8 117.09-29.55 124.03-29.55 124.03 0 117.19 0 113.54-12.25 113.54 0ZM109.84-15L109.98-2.35 110.23-2.35 110.39-15 110.23-26.7 114.59-15.25 120.39-2.35 120.54-2.35 120.69-15 120.54-27.35 120.29-27.35 120.14-15 120.34-2.85 115.29-14.95 110.14-27.35 109.98-27.35 109.84-15ZM135.08 0.4L135.08 0.4Q131.98 0.4 129.96-0.38 127.93-1.15 126.96-3.08 125.98-5 125.98-8.45L125.98-8.45 125.98-9.4 134.33-9.4 134.33-7.2Q134.33-5.5 134.53-4.78 134.73-4.05 135.38-4.05L135.38-4.05Q135.98-4.05 136.18-4.55L136.18-4.55Q136.38-5 136.38-6.8L136.38-6.8Q136.38-8.45 135.83-9.35 135.28-10.25 134.11-10.88 132.93-11.5 131.03-12.3L131.03-12.3Q128.23-13.55 127.23-15.63 126.23-17.7 126.23-21.1L126.23-21.1Q126.23-24.3 127.11-26.18 127.98-28.05 129.98-28.85 131.98-29.65 135.38-29.65L135.38-29.65Q144.48-29.65 144.48-22.45L144.48-22.45 144.48-19.15 136.53-19.15 136.53-19.95Q136.53-20.95 136.51-21.75 136.48-22.55 136.43-23.05L136.43-23.05Q136.28-24.05 135.48-24.05L135.48-24.05Q134.83-24.05 134.66-23.25 134.48-22.45 134.48-21.35L134.48-21.35Q134.48-19.95 135.01-19.23 135.53-18.5 136.48-18.1 137.43-17.7 138.58-17.25L138.58-17.25Q140.93-16.4 142.28-15.48 143.63-14.55 144.23-12.98 144.83-11.4 144.83-8.55L144.83-8.55Q144.83-3.65 142.28-1.63 139.73 0.4 135.08 0.4ZM135.33-1.95L135.33-1.95Q135.88-1.95 136.56-2 137.23-2.05 137.63-2.15L137.63-2.15Q139.38-2.55 140.16-3.85 140.93-5.15 140.93-8L140.93-8Q140.93-10.4 140.01-11.83 139.08-13.25 137.08-13.95L137.08-13.95 135.53-14.5 134.08-15.2Q132.18-16.15 131.46-17.53 130.73-18.9 130.73-21.05L130.73-21.05Q130.73-23.6 131.36-24.88 131.98-26.15 133.68-26.5L133.68-26.5Q134.08-26.6 134.56-26.65 135.03-26.7 135.53-26.7L135.53-26.7Q136.43-26.7 137.08-26.55L137.08-26.55Q138.93-26.25 139.66-24.98 140.38-23.7 140.38-21.05L140.38-21.05 140.53-21.05Q140.68-23.9 139.91-25.15 139.13-26.4 137.08-26.7L137.08-26.7Q136.73-26.75 136.33-26.78 135.93-26.8 135.53-26.8L135.53-26.8Q134.43-26.8 133.68-26.65L133.68-26.65Q131.78-26.3 130.93-25.03 130.08-23.75 130.08-21.05L130.08-21.05Q130.08-16.6 133.98-15L133.98-15 135.48-14.4 136.98-13.75Q138.93-12.9 139.63-11.6 140.33-10.3 140.33-8L140.33-8Q140.33-5.3 139.76-3.98 139.18-2.65 137.58-2.3L137.58-2.3Q137.18-2.2 136.53-2.13 135.88-2.05 135.33-2.05L135.33-2.05Q134.93-2.05 134.31-2.1 133.68-2.15 133.33-2.25L133.33-2.25Q131.53-2.6 130.86-3.9 130.18-5.2 130.18-8.05L130.18-8.05 130.03-8.05Q129.88-5.05 130.61-3.73 131.33-2.4 133.28-2.1L133.28-2.1Q133.63-2.05 134.28-2 134.93-1.95 135.33-1.95ZM155.58 0.6L155.58 0.6Q152.63 0.6 150.66-0.03 148.68-0.65 147.73-2.55 146.78-4.45 146.78-8.15L146.78-8.15 146.78-29.55 154.73-29.55 154.73-5.75Q154.73-4.9 154.96-4.58 155.18-4.25 155.58-4.25L155.58-4.25Q155.98-4.25 156.21-4.58 156.43-4.9 156.43-5.75L156.43-5.75 156.43-29.55 164.38-29.55 164.38-8.2Q164.38-4.5 163.43-2.6 162.48-0.7 160.53-0.05 158.58 0.6 155.58 0.6ZM153.98-2.25L153.98-2.25 155.33-2.25Q155.63-2.25 155.78-2.3L155.78-2.3Q155.88-2.25 156.13-2.25L156.13-2.25 157.33-2.25Q160.53-2.25 160.63-5.7L160.63-5.7 160.93-15 160.63-27.35 160.43-27.35 160.23-15.05 160.43-5.7Q160.48-2.55 157.33-2.45L157.33-2.45 156.63-2.45Q156.43-2.4 156.13-2.4L156.13-2.4 155.33-2.4 154.73-2.45 153.98-2.45Q150.78-2.45 150.88-5.7L150.88-5.7 151.08-15.05 150.88-27.35 150.68-27.35 150.38-15 150.68-5.7Q150.78-2.25 153.98-2.25ZM175.18 0L166.88 0 166.88-29.55 178.48-29.55Q181.78-29.55 183.25-28.15 184.73-26.75 184.73-24.5L184.73-24.5 184.73-20Q184.73-17.85 183.85-16.15 182.98-14.45 180.58-13.9L180.58-13.9Q181.78-13.8 182.48-13.15 183.18-12.5 183.83-10.75L183.83-10.75 186.58 0 177.73 0 175.18-13.1 175.18 0ZM176.38-14.6L176.38-14.5 177.48-14.5Q179.03-14.5 179.85-15.6 180.68-16.7 181-18.4 181.33-20.1 181.33-21.9L181.33-21.9Q181.33-25.1 180.43-26.33 179.53-27.55 177.18-27.45L177.18-27.45 175.58-27.4 175.58-27.3 177.18-27.25Q178.78-27.2 179.55-26.7 180.33-26.2 180.55-25.05 180.78-23.9 180.78-21.9L180.78-21.9Q180.78-20.45 180.58-18.78 180.38-17.1 179.68-15.93 178.98-14.75 177.48-14.65L177.48-14.65 176.38-14.6ZM170.73-15L170.93-2.35 171.13-2.35 171.38-15 171.18-27.35 170.98-27.35 170.73-15ZM175.18-25.35L175.18-16 175.78-16Q176.48-16 176.65-17.13 176.83-18.25 176.83-20.4L176.83-20.4Q176.83-21.8 176.8-22.75 176.78-23.7 176.73-24.25L176.73-24.25Q176.68-25.35 175.93-25.35L175.93-25.35 175.18-25.35ZM181.38-2.35L181.38-2.35 181.78-2.35Q181.58-3.1 181.23-4.65 180.88-6.2 180.43-7.98 179.98-9.75 179.38-11.2 178.78-12.65 177.98-13.25L177.98-13.25 177.93-13.25Q178.68-12.65 179.18-11.33 179.68-10 180.03-8.38 180.38-6.75 180.7-5.15 181.03-3.55 181.38-2.35ZM195.03 0L186.38 0 190.63-29.55 202.38-29.55 206.53 0 197.58 0 197.18-4.3 195.33-4.3 195.03 0ZM191.88-15.05L190.48-2.35 190.68-2.35 190.83-3.4Q190.93-3.95 190.98-4.6L190.98-4.6 191.13-6.15 196.28-6.2 201.38-6.15 201.78-2.35 202.03-2.35 200.83-14.95 199.28-27.45 196.43-27.35 193.83-27.45 191.88-15.05ZM201.33-6.35L196.28-6.25 191.18-6.35 192.43-15 194.03-27.25 196.43-27.3 199.08-27.25 200.23-14.95 201.33-6.35ZM196.28-23.3L195.38-8.15 197.18-8.15 196.28-23.3ZM214.87 0L207.92 0 207.92-29.55 214.82-29.55 218.42-15.8 218.42-29.55 225.37-29.55 225.37 0 218.52 0 214.87-12.25 214.87 0ZM211.17-15L211.32-2.35 211.57-2.35 211.72-15 211.57-26.7 215.92-15.25 221.72-2.35 221.87-2.35 222.02-15 221.87-27.35 221.62-27.35 221.47-15 221.67-2.85 216.62-14.95 211.47-27.35 211.32-27.35 211.17-15ZM236.72 0.6L236.72 0.6Q233.72 0.6 231.7-0.15 229.67-0.9 228.65-2.93 227.62-4.95 227.62-8.65L227.62-8.65 227.62-23.25Q227.62-26.95 230.12-28.48 232.62-30 236.72-30L236.72-30Q240.82-30 243.15-28.48 245.47-26.95 245.47-23.25L245.47-23.25 245.47-16.35 237.52-16.35 237.52-23.65Q237.52-24.5 237.32-24.85L237.32-24.85Q237.12-25.15 236.72-25.15L236.72-25.15Q236.37-25.15 236.12-24.85L236.12-24.85Q235.92-24.5 235.92-23.65L235.92-23.65 235.92-5.5Q235.92-4.6 236.12-4.35L236.12-4.35Q236.32-4 236.72-4L236.72-4Q237.12-4 237.32-4.35L237.32-4.35Q237.52-4.6 237.52-5.5L237.52-5.5 237.52-12.4 245.47-12.4 245.47-8.7Q245.47-4.95 244.55-2.95 243.62-0.95 241.67-0.18 239.72 0.6 236.72 0.6ZM236.72-2.2L236.72-2.2Q237.32-2.2 237.85-2.23 238.37-2.25 238.82-2.4L238.82-2.4Q240.32-2.85 240.97-4.03 241.62-5.2 241.62-7.8L241.62-7.8 241.52-10.8 241.42-10.8 241.37-7.8Q241.37-5.4 240.77-4.23 240.17-3.05 238.72-2.6L238.72-2.6Q237.92-2.3 236.72-2.3L236.72-2.3Q235.52-2.3 234.62-2.6L234.62-2.6Q233.32-3 232.72-4.2 232.12-5.4 232.12-7.8L232.12-7.8 232.32-14.7 232.12-23.3Q232.12-24.8 232.72-25.75 233.32-26.7 234.77-27.05L234.77-27.05Q235.22-27.15 235.72-27.23 236.22-27.3 236.72-27.3L236.72-27.3Q237.77-27.3 238.52-27.1L238.52-27.1Q240.02-26.75 240.67-25.85 241.32-24.95 241.32-23.65L241.32-23.65 241.37-18.9 241.47-18.9 241.57-23.65Q241.57-25.05 240.87-25.98 240.17-26.9 238.57-27.3L238.57-27.3Q238.42-27.35 238.22-27.38 238.02-27.4 237.77-27.4L237.77-27.4 236.72-27.4Q236.17-27.4 235.65-27.38 235.12-27.35 234.77-27.25L234.77-27.25Q233.22-26.9 232.57-25.9 231.92-24.9 231.92-23.3L231.92-23.3 231.67-14.7 231.92-7.8Q231.92-5.25 232.57-4.03 233.22-2.8 234.52-2.4L234.52-2.4Q234.97-2.25 235.52-2.23 236.07-2.2 236.72-2.2ZM261.92 0L247.62 0 247.62-29.55 261.92-29.55 261.92-24 255.92-24 255.92-18.25 261.42-18.25 261.42-12 255.92-12 255.92-5.4 261.92-5.4 261.92 0ZM251.42-15L251.62-2.75 259.87-2.8 259.87-2.9 251.87-2.95 252.07-14.9 258.62-14.95 258.62-15.05 252.07-15.1 251.87-26.6 259.87-26.65 259.87-26.75 251.62-26.8 251.42-15Z" fill="#0074d9" data-fill-palette-color="secondary"></path></g></svg></g></svg></g></svg></g></svg></g><g><svg viewBox="0 0 46.56730297355179 49.29914460021292" height="49.29914460021292" width="46.56730297355179"><g><svg xmlns="http://www.w3.org/2000/svg" xml:space="preserve" viewBox="5.996 4.588 48.00860527751525 50.824999999999996" x="0" y="0" height="49.29914460021292" width="46.56730297355179" class="icon-icon-0" data-fill-palette-color="accent" id="icon-0"><path d="M53.662 27.261c-8.971 0-10.659-5.508-10.659-5.508h-5.505s-1.688 5.508-10.658 5.508c0 1.509-3.729 21.402 13.411 28.152C57.39 48.662 53.662 28.77 53.662 27.261m-5.01 13.49h-6.234v6.234h-4.337v-6.234h-6.232v-4.337h6.232v-6.233h4.337v6.233h6.234zM16.218 8.621h18.051v2.21H16.218zM9.258 13.179h5.328v0.87H9.258zM34.922 13.179h5.329v0.87h-5.329zM9.258 15.462h6.96v0.87h-6.96z" fill="#ffdc00" data-fill-palette-color="accent"></path><path d="M6.865 41.421V5.457H43.62v15.035c0.292 0.077 0.585 0.152 0.87 0.245V4.588H5.996v37.703h18.918c-0.124-0.285-0.23-0.579-0.337-0.87z" fill="#ffdc00" data-fill-palette-color="accent"></path><path d="M34.922 15.462h5.329v0.87h-5.329zM32.601 21.117h0.961a16 16 0 0 1 2.925-0.87H8.823v17.239H23.66c-0.028-0.285-0.031-0.578-0.043-0.869h-1.31v-4.48h1.741c0.07-0.291 0.137-0.584 0.224-0.87h-1.965v-10.15z m-19.282 15.5H9.693v-4.48h3.626z m0-5.351H9.693V21.117h3.626z m8.119 5.351h-7.25v-4.48h7.25z m0-5.351h-7.25V21.117h7.25z" fill="#ffdc00" data-fill-palette-color="accent"></path></svg></g></svg></g></svg></g></svg></g></svg></g></svg></g><defs></defs></svg><rect width="375.07953" height="118.91032199999998" fill="none" stroke="none" visibility="hidden"></rect></g></svg></g></svg>